<svg version="1.1" xmlns="http://www.w3.org/2000/svg" xmlns:xlink="http://www.w3.org/1999/xlink" style="enable-background:new 0 0 500 500;" xml:space="preserve" width="365" height="365"><rect id="backgroundrect" width="100%" height="100%" x="0" y="0" fill="none" stroke="none"/>
<style type="text/css">
	.st0{fill:#949494;}
	.st1{fill:#F1F1F1;}
	.st2{fill:#808080;}
	.st3{fill:#DC1D00;}
	.st4{fill:#4D4D4D;}
	.st5{fill:#FFFEFE;}
</style>

<g class="currentLayer" style=""><title>Layer 1</title><g id="XMLID_16_" class="">
	<polyline id="XMLID_19_" class="st0" points="288.14833438396454,0.9000015258789062 288.0483282804489,0.9000015258789062 360.64833438396454,76.60000610351562 360.64833438396454,364.1000061035156 89.64825809001923,364.1000061035156 89.64825809001923,365 361.5483282804489,365 361.5483282804489,77.5 288.14833438396454,0.9000015258789062 "/>
	<polyline id="XMLID_20_" class="st1" points="287.14833438396454,0 88.74826419353485,0 88.74826419353485,364.1000061035156 360.64833438396454,364.1000061035156 360.64833438396454,76.60000610351562 287.14833438396454,0 "/>
	<polygon id="XMLID_39_" class="st2" points="86.74826419353485,19.5 3.448275923728943,19.5 3.448275923728943,108.5 86.74826419353485,108.5 265.4483221769333,108.5 265.4483221769333,19.5 "/>
	<rect id="XMLID_30_" x="5.14827287197113" y="18" class="st3" width="261.70001220703125" height="89.0999984741211"/>
	<g id="XMLID_2_">
		<path id="XMLID_35_" class="st4" d="M89.44826114177704,62.899993896484375 c-0.4000000059604645,0 -0.800000011920929,0 -1.2000000476837158,0 v-19.299999237060547 h2.5 c2.9000000953674316,0 4.699999809265137,0.8999999761581421 6,2.4000000953674316 c1.600000023841858,1.7999999523162842 2.4000000953674316,5 2.4000000953674316,7.300000190734863 c0,3.200000047683716 0,6.099999904632568 -2.9000000953674316,8.199999809265137 C94.74826419353485,62.600006103515625 92.24826419353485,62.899993896484375 89.44826114177704,62.899993896484375 M91.94826114177704,33 c-0.10000000149011612,0 -0.30000001192092896,0 -0.4000000059604645,0 c-1.2999999523162842,0 -2.200000047683716,0 -2.700000047683716,0 h-13.899999618530273 v62.599998474121094 h13.399999618530273 V74.5 l3,0.20000000298023224 c3.0999999046325684,0 5.900000095367432,-0.699999988079071 8.399999618530273,-1.5 c2.5,-0.800000011920929 4.599999904632568,-2.200000047683716 6.400000095367432,-3.799999952316284 c1.7999999523162842,-1.600000023841858 3.5,-3.5999999046325684 4.400000095367432,-5.900000095367432 c1.399999976158142,-3.5 1.7000000476837158,-8.399999618530273 1.399999976158142,-11.800000190734863 c-0.4000000059604645,-3.4000000953674316 -0.5,-6.199999809265137 -1.5,-8.399999618530273 c-1,-2.200000047683716 -2.299999952316284,-4 -3.799999952316284,-5.400000095367432 c-1.600000023841858,-1.399999976158142 -3.299999952316284,-2.4000000953674316 -5.099999904632568,-3.0999999046325684 c-1.899999976158142,-0.699999988079071 -3.5999999046325684,-1.100000023841858 -5.400000095367432,-1.399999976158142 C94.54826724529266,33.099998474121094 93.14825809001923,33 91.94826114177704,33 "/>
		<path id="XMLID_38_" class="st4" d="M134.94826114177704,84.19999694824219 c-0.4000000059604645,0 -0.800000011920929,0 -1.2999999523162842,0 v-39.900001525878906 c0.10000000149011612,0 0.10000000149011612,0 0.20000000298023224,0 c2.700000047683716,0 6.099999904632568,0 7.800000190734863,1.399999976158142 c1.7999999523162842,1.399999976158142 3.200000047683716,3.200000047683716 4.199999809265137,5.199999809265137 c1,2.0999999046325684 1.7000000476837158,4.400000095367432 1.7999999523162842,6.900000095367432 c0.10000000149011612,2.9000000953674316 0,5.199999809265137 0,7.199999809265137 c0,1.899999976158142 0,4.300000190734863 -0.4000000059604645,6.699999809265137 c-0.4000000059604645,2.4000000953674316 -1.2000000476837158,4.5 -2.200000047683716,6.599999904632568 c-1.100000023841858,2 -3,3.4000000953674316 -4.699999809265137,4.699999809265137 C138.8482550382614,83.89999389648438 137.04826724529266,84.19999694824219 134.94826114177704,84.19999694824219 M137.3482550382614,32.900001525878906 c-1.399999976158142,0 -2.9000000953674316,0.10000000149011612 -3.799999952316284,0.10000000149011612 c-1.7000000476837158,0.10000000149011612 -2.700000047683716,0.10000000149011612 -3.0999999046325684,0.10000000149011612 h-10.199999809265137 v62.599998474121094 h12 c5.300000190734863,0 9.699999809265137,-0.800000011920929 13.399999618530273,-2.299999952316284 c3.700000047683716,-1.5 6.599999904632568,-3.700000047683716 8.899999618530273,-6.400000095367432 c2.200000047683716,-2.700000047683716 3.9000000953674316,-6 4.900000095367432,-9.800000190734863 c1,-3.799999952316284 1.5,-7.900000095367432 1.5,-12.399999618530273 c0,-5.800000190734863 0,-10.300000190734863 -1.100000023841858,-14.699999809265137 c-1,-4 -3.0999999046325684,-7.199999809265137 -5.300000190734863,-9.600000381469727 c-2.0999999046325684,-2.4000000953674316 -4.5,-4.099999904632568 -7,-5.199999809265137 c-2.5,-1.100000023841858 -4.900000095367432,-1.899999976158142 -7.199999809265137,-2.299999952316284 C139.3482550382614,32.900001525878906 138.3482550382614,32.900001525878906 137.3482550382614,32.900001525878906 "/>
		<polyline id="XMLID_64_" class="st4" points="201.1482733488083,33.099998474121094 169.44826114177704,33.099998474121094 169.44826114177704,95.69999694824219 182.8482550382614,95.69999694824219 182.8482550382614,70.80000305175781 199.7482489347458,70.80000305175781 199.7482489347458,59.19999694824219 182.8482550382614,59.19999694824219 182.8482550382614,44.69999694824219 201.1482733488083,44.69999694824219 201.1482733488083,33.099998474121094 "/>
	</g>
	<path id="XMLID_28_" class="st3" d="M311.64833438396454,246.29998779296875 c-0.10000000149011612,-1.2000000476837158 -1.2000000476837158,-15.699999809265137 -27,-15.100000381469727 c-25.700000762939453,0.6000000238418579 -32,2.200000047683716 -32,2.200000047683716 S233.44826114177704,213.89999389648438 226.44826114177704,198.79998779296875 c0,0 8.5,-24.899999618530273 8.100000381469727,-40.5 c-0.4000000059604645,-15.600000381469727 -4.099999904632568,-24.600000381469727 -16.100000381469727,-24.5 c-12,0.10000000149011612 -13.699999809265137,10.600000381469727 -12.199999809265137,26.200000762939453 c1.399999976158142,14 8.699999809265137,30.5 8.699999809265137,30.5 s-5.5,17.200000762939453 -12.899999618530273,34.400001525878906 c-7.300000190734863,17.200000762939453 -12.300000190734863,26.200000762939453 -12.300000190734863,26.200000762939453 s-24.799999237060547,8.300000190734863 -35.5,18.299999237060547 c-10.699999809265137,10 -15.100000381469727,17.700000762939453 -9.5,25.399999618530273 c4.900000095367432,6.599999904632568 21.899999618530273,8.100000381469727 37.20000076293945,-11.899999618530273 c15.199999809265137,-20 22.100000381469727,-32.5 22.100000381469727,-32.5 s23.299999237060547,-6.400000095367432 30.5,-8.100000381469727 c7.199999809265137,-1.7000000476837158 16,-3.0999999046325684 16,-3.0999999046325684 s21.200000762939453,21.399999618530273 41.70000076293945,20.600000381469727 C312.74830996990204,259 311.74830996990204,247.5 311.64833438396454,246.29998779296875 zM150.04826724529266,291.3999938964844 c-12.699999809265137,-7.599999904632568 26.700000762939453,-31.100000381469727 33.900001525878906,-31.899999618530273 C183.94826114177704,259.5 163.44826114177704,299.3999938964844 150.04826724529266,291.3999938964844 zM210.6482733488083,154.39999389648438 c0,-12.399999618530273 4,-15.699999809265137 7.099999904632568,-15.699999809265137 s6.599999904632568,1.5 6.699999809265137,12.199999809265137 c0.10000000149011612,10.699999809265137 -6.699999809265137,31.700000762939453 -6.699999809265137,31.700000762939453 C215.44826114177704,180.10000610351562 210.6482733488083,166.6999969482422 210.6482733488083,154.39999389648438 zM227.1482733488083,239.10000610351562 c-12.800000190734863,3.0999999046325684 -19.200000762939453,6.400000095367432 -19.200000762939453,6.400000095367432 s0,0 5.199999809265137,-11.699999809265137 c5.199999809265137,-11.699999809265137 10.600000381469727,-27.700000762939453 10.600000381469727,-27.700000762939453 c7.199999809265137,13.5 21.600000381469727,29.399999618530273 21.600000381469727,29.399999618530273 S239.94826114177704,235.89999389648438 227.1482733488083,239.10000610351562 zM257.84828555583954,238 c0,0 41.599998474121094,-7.5 41.599998474121094,6.699999809265137 C299.4483221769333,258.79998779296875 273.64833438396454,253 257.84828555583954,238 z"/>
	<polygon id="XMLID_44_" class="st0" points="286.14833438396454,1 286.14833438396454,77.60000610351562 359.64833438396454,77.60000610351562 "/>
	<polygon id="XMLID_21_" class="st1" points="287.14833438396454,0 287.14833438396454,76.60000610351562 360.64833438396454,76.60000610351562 "/>
	<g id="XMLID_23_">
		<path id="XMLID_43_" class="st5" d="M88.44826114177704,61.899993896484375 c-0.4000000059604645,0 -0.800000011920929,0 -1.2000000476837158,0 v-19.299999237060547 h2.5 c2.9000000953674316,0 4.699999809265137,0.8999999761581421 6,2.4000000953674316 c1.600000023841858,1.7999999523162842 2.4000000953674316,5 2.4000000953674316,7.300000190734863 c0,3.200000047683716 0,6.099999904632568 -2.9000000953674316,8.199999809265137 C93.74826419353485,61.600006103515625 91.24826419353485,61.899993896484375 88.44826114177704,61.899993896484375 M90.94826114177704,32 c-0.10000000149011612,0 -0.30000001192092896,0 -0.4000000059604645,0 c-1.2999999523162842,0 -2.200000047683716,0 -2.700000047683716,0 h-13.899999618530273 v62.599998474121094 h13.399999618530273 V73.5 l3,0.20000000298023224 c3.0999999046325684,0 5.900000095367432,-0.699999988079071 8.399999618530273,-1.5 c2.5,-0.800000011920929 4.599999904632568,-2.200000047683716 6.400000095367432,-3.799999952316284 c1.7999999523162842,-1.600000023841858 3.5,-3.5999999046325684 4.400000095367432,-5.900000095367432 c1.399999976158142,-3.5 1.7000000476837158,-8.399999618530273 1.399999976158142,-11.800000190734863 c-0.4000000059604645,-3.4000000953674316 -0.5,-6.199999809265137 -1.5,-8.399999618530273 c-1,-2.200000047683716 -2.299999952316284,-4 -3.799999952316284,-5.400000095367432 c-1.600000023841858,-1.399999976158142 -3.299999952316284,-2.4000000953674316 -5.099999904632568,-3.0999999046325684 c-1.899999976158142,-0.699999988079071 -3.5999999046325684,-1.100000023841858 -5.400000095367432,-1.399999976158142 C93.54826724529266,32.099998474121094 92.14825809001923,32 90.94826114177704,32 "/>
		<path id="XMLID_32_" class="st5" d="M133.94826114177704,83.19999694824219 c-0.4000000059604645,0 -0.800000011920929,0 -1.2999999523162842,0 v-39.900001525878906 c0.10000000149011612,0 0.10000000149011612,0 0.20000000298023224,0 c2.700000047683716,0 6.099999904632568,0 7.800000190734863,1.399999976158142 c1.7999999523162842,1.399999976158142 3.200000047683716,3.200000047683716 4.199999809265137,5.199999809265137 c1,2.0999999046325684 1.7000000476837158,4.400000095367432 1.7999999523162842,6.900000095367432 c0.10000000149011612,2.9000000953674316 0,5.199999809265137 0,7.199999809265137 c0,1.899999976158142 0,4.300000190734863 -0.4000000059604645,6.699999809265137 c-0.4000000059604645,2.4000000953674316 -1.2000000476837158,4.5 -2.200000047683716,6.599999904632568 c-1.100000023841858,2 -3,3.4000000953674316 -4.699999809265137,4.699999809265137 C137.8482550382614,82.89999389648438 136.04826724529266,83.19999694824219 133.94826114177704,83.19999694824219 M136.3482550382614,31.900001525878906 c-1.399999976158142,0 -2.9000000953674316,0.10000000149011612 -3.799999952316284,0.10000000149011612 c-1.7000000476837158,0.10000000149011612 -2.700000047683716,0.10000000149011612 -3.0999999046325684,0.10000000149011612 h-10.199999809265137 v62.599998474121094 h12 c5.300000190734863,0 9.699999809265137,-0.800000011920929 13.399999618530273,-2.299999952316284 c3.700000047683716,-1.5 6.599999904632568,-3.700000047683716 8.899999618530273,-6.400000095367432 c2.200000047683716,-2.700000047683716 3.9000000953674316,-6 4.900000095367432,-9.800000190734863 c1,-3.799999952316284 1.5,-7.900000095367432 1.5,-12.399999618530273 c0,-5.800000190734863 0,-10.300000190734863 -1.100000023841858,-14.699999809265137 c-1,-4 -3.0999999046325684,-7.199999809265137 -5.300000190734863,-9.600000381469727 c-2.0999999046325684,-2.4000000953674316 -4.5,-4.099999904632568 -7,-5.199999809265137 c-2.5,-1.100000023841858 -4.900000095367432,-1.899999976158142 -7.199999809265137,-2.299999952316284 C138.3482550382614,31.900001525878906 137.3482550382614,31.900001525878906 136.3482550382614,31.900001525878906 "/>
		<polyline id="XMLID_24_" class="st5" points="200.1482733488083,32.099998474121094 168.44826114177704,32.099998474121094 168.44826114177704,94.69999694824219 181.8482550382614,94.69999694824219 181.8482550382614,69.80000305175781 198.7482489347458,69.80000305175781 198.7482489347458,58.19999694824219 181.8482550382614,58.19999694824219 181.8482550382614,43.69999694824219 200.1482733488083,43.69999694824219 200.1482733488083,32.099998474121094 "/>
	</g>
</g></g></svg>