<svg enable-background="new 0 0 1771 2499.8" xmlns="http://www.w3.org/2000/svg" width="2499" height="2499" style=""><rect id="backgroundrect" width="100%" height="100%" x="0" y="0" fill="none" stroke="none" style="" class=""/><g class="currentLayer" style=""><title>Layer 1</title><path d="m1774.4643149375916,92.5 h-146.89999389648438 l152.8000030517578,165.89999389648438 v78.9000015258789 h-314.79998779296875 v-92.4000015258789 h152.8000030517578 l-152.8000030517578,-165.89999389648438 v-79 h309 zm-371.3999938964844,0 h-147.10000610351562 l153,165.89999389648438 v78.9000015258789 h-314.8999938964844 v-92.4000015258789 h152.8000030517578 l-152.8000030517578,-165.89999389648438 v-79 h309 zm-367.79998779296875,3.799999952316284 h-158.5 v144.8000030517578 h158.5 v96.30000305175781 h-271.29998779296875 v-337.3999938964844 h271.29998779296875 z" fill="#131313" id="svg_1" class=""/><path d="m547.8664755821228,2299.10009765625 l-161.1999969482422,-1807.699951171875 h1771 l-161.39999389648438,1807.4000244140625 l-725.2000122070312,201 z" fill="#1572b6" id="svg_2" class=""/><path d="m1272.1654868125916,2346.199951171875 l586,-162.5 l137.8000030517578,-1544.5 h-723.7999877929688 z" fill="#33a9dc" id="svg_3" class=""/><path d="m1272.1654868125916,1294.0999755859375 h293.3999938964844 l20.200000762939453,-227 h-313.6000061035156 v-221.60000610351562 h556 l-5.300000190734863,59.5 l-54.5,611 h-496.20001220703125 z" fill="#fff" id="svg_4" class=""/><path d="m1273.365560054779,1869.9000244140625 h-1 l-246.89999389648438,-66.69999694824219 l-15.800000190734863,-176.8000030517578 h-222.39999389648438 l31.100000381469727,348.1000061035156 l454.20001220703125,126.4000015258789 h1.2999999523162842 v-231 z" fill="#ebebeb" id="svg_5" class=""/><path d="m1546.764241695404,1506.300048828125 l-26.700000762939453,296.70001220703125 l-247.3000030517578,66.69999694824219 v231 l454.5,-126 l3.299999952316284,-37.5 l38.599998474121094,-431 h-222.39999389648438 z" fill="#fff" id="svg_6" class=""/><path d="m1272.9655356407166,845.5 v221.6999969482422 h-535.4000244140625 l-4.599999904632568,-49.79999923706055 l-10.100000381469727,-112.4000015258789 l-5.300000190734863,-59.5 zm-0.800000011920929,448.6000061035156 v221.6999969482422 h-244.10000610351562 l-4.300000190734863,-49.79999923706055 l-10.100000381469727,-112.4000015258789 l-5.300000190734863,-59.5 h263.70001220703125 z" fill="#ebebeb" id="svg_7" class=""/></g></svg>