<svg xmlns="http://www.w3.org/2000/svg" width="300" height="300"><rect id="backgroundrect" width="100%" height="100%" x="0" y="0" fill="none" stroke="none" style="" class=""/><style type="text/css">.st0{fill:#0acf83}.st1{fill:#a259ff}.st2{fill:#f24e1e}.st3{fill:#ff7262}.st4{fill:#1abcfe}</style><title>Figma.logo</title><desc>Created using Figma</desc><g class="currentLayer" style=""><title>Layer 1</title><path id="path0_fill" class="st0" d="M107.24114620685577,300 c27.600000381469727,0 50,-22.399999618530273 50,-50 v-50 H107.24114620685577 c-27.600000381469727,0 -50,22.399999618530273 -50,50 s22.399999618530273,50 50,50 z"/><path id="path1_fill" class="st1" d="M57.24138653278351,150 c0,-27.600000381469727 22.399999618530273,-50 50,-50 h50 v100 H107.24114620685577 c-27.600000381469727,0 -50,-22.399999618530273 -50,-50 z"/><path id="path1_fill_1_" class="st2" d="M57.24138653278351,50 C57.24138653278351,22.399999618530273 79.6413003206253,0 107.24114620685577,0 h50 v100 H107.24114620685577 C79.6413003206253,100 57.24138653278351,77.5999984741211 57.24138653278351,50 z"/><path id="path2_fill" class="st3" d="M157.24106991291046,0 h50 c27.600000381469727,0 50,22.399999618530273 50,50 s-22.399999618530273,50 -50,50 h-50 V0 z"/><path id="path3_fill" class="st4" d="M257.2411004304886,150 c0,27.600000381469727 -22.399999618530273,50 -50,50 s-50,-22.399999618530273 -50,-50 s22.399999618530273,-50 50,-50 s50,22.399999618530273 50,50 z"/></g></svg>