<svg width="361" height="361" xmlns="http://www.w3.org/2000/svg" preserveAspectRatio="xMinYMin meet" style=""><rect id="backgroundrect" width="100%" height="100%" x="0" y="0" fill="none" stroke="none" style="" class=""/><g class="currentLayer" style=""><title>Layer 1</title><path d="M310.72832095623016,70.76599884033203 l-23.240999221801758,260.3599853515625 l-104.47000122070312,28.961999893188477 l-104.18199920654297,-28.922000885009766 L55.61742389202118,70.76599884033203 h255.11000061035156 z" fill="#E44D26" id="svg_1" class="" opacity="1"/><path d="M183.17212283611298,337.95001220703125 l84.41699981689453,-23.402999877929688 l19.860000610351562,-222.49000549316406 H183.17212283611298 V337.95001220703125 z" fill="#F16529" id="svg_2" class="" opacity="1"/><path d="M137.99213016033173,155.9320068359375 H183.17212283611298 v-31.937000274658203 H103.08921420574188 l0.7639999985694885,8.567999839782715 l7.849999904632568,88.01000213623047 H183.17212283611298 v-31.937000274658203 H140.9111212491989 l-2.9189999103546143,-32.70399856567383 zM145.19012820720673,236.54200744628906 h-32.060001373291016 l4.473999977111816,50.145999908447266 l65.4209976196289,18.15999984741211 l0.1469999998807907,-0.03999999910593033 V271.5799865722656 l-0.14000000059604645,0.03700000047683716 l-35.56800079345703,-9.604000091552734 l-2.2739999294281006,-25.47100067138672 z" fill="#EBEBEB" id="svg_3" class="" opacity="1"/><path d="M79.35234439373016,0 h16.229999542236328 v16.03499984741211 h14.847000122070312 V0 h16.231000900268555 v48.55799865722656 h-16.229999542236328 v-16.260000228881836 H95.58325564861298 v16.260000228881836 h-16.229999542236328 V0 zM148.00212466716766,16.10300064086914 H133.71612918376923 V0 h44.81399917602539 v16.10300064086914 h-14.295000076293945 v32.45500183105469 h-16.229999542236328 V16.10300064086914 h-0.0010000000474974513 zM185.6421240568161,0 h16.92300033569336 l10.40999984741211,17.062000274658203 L223.37512576580048,0 h16.93000030517578 v48.55799865722656 h-16.163999557495117 V24.489999771118164 l-11.166000366210938,17.264999389648438 h-0.2800000011920929 L201.5221289396286,24.489999771118164 v24.06800079345703 h-15.880000114440918 V0 zM248.38212954998016,0 h16.235000610351562 v32.507999420166016 h22.823999404907227 v16.049999237060547 h-39.060001373291016 V0 z" id="svg_4" class="" opacity="1"/><path d="M183.0621222257614,220.572998046875 h39.32699966430664 l-3.7079999446868896,41.41999816894531 l-35.619998931884766,9.61400032043457 v33.22600173950195 l65.4729995727539,-18.145000457763672 l0.47999998927116394,-5.395999908447266 l7.50600004196167,-84.08000183105469 l0.7789999842643738,-8.576000213623047 H183.0621222257614 v31.937000274658203 zM183.0621222257614,155.85400390625 v0.07800000160932541 h77.14299774169922 l0.6399999856948853,-7.177999973297119 l1.4559999704360962,-16.19099998474121 l0.7630000114440918,-8.567999839782715 H183.0621222257614 v31.860000610351562 z" fill="#FFF" id="svg_5" class="" opacity="1"/></g></svg>