<svg width="256" height="256" xmlns="http://www.w3.org/2000/svg" preserveAspectRatio="xMidYMid"><rect id="backgroundrect" width="100%" height="100%" x="0" y="0" fill="none" stroke="none" style="" class=""/><g class="currentLayer" style=""><title>Layer 1</title><path d="M190.3179931640625,141.21385473012924 c-4.826000213623047,1.5750000476837158 -10.015000343322754,2.059000015258789 -15.055999755859375,2.941999912261963 c-1.371999979019165,0.23999999463558197 -2.819999933242798,0.026000000536441803 -4.204999923706055,0.21799999475479126 c-10.753000259399414,1.4919999837875366 -14.815999984741211,5.798999786376953 -16.334999084472656,17.249000549316406 c-0.8080000281333923,6.09499979019165 -2.4119999408721924,11.887999534606934 -5.909999847412109,17.073999404907227 c-5.909999847412109,8.758999824523926 -17.391000747680664,12.734000205993652 -27.216999053955078,9.312000274658203 c-10.517999649047852,-3.6630001068115234 -16.889999389648438,-13.25 -16.040000915527344,-24.135000228881836 c0.765999972820282,-9.807000160217285 8.51200008392334,-18.47100067138672 19.389999389648438,-20.98900032043457 c5.093999862670898,-1.1790000200271606 10.378999710083008,-1.6399999856948853 15.604999542236328,-2.115999937057495 c9.755000114440918,-0.8870000243186951 14.064000129699707,-5.164000034332275 15.689000129699707,-14.755999565124512 c0.9350000023841858,-5.519000053405762 0.10199999809265137,-10.72599983215332 -1.121999979019165,-15.932000160217285 c-1.8700000047683716,-7.956999778747559 -7.663000106811523,-11.654000282287598 -17.389999389648438,-12.362000465393066 c-5.308000087738037,-0.3869999945163727 -10.708000183105469,-1.156999945640564 -15.786999702453613,-2.683000087738037 c-10.692000389099121,-3.2149999141693115 -16.91699981689453,-12.496999740600586 -16.423999786376953,-23.38599967956543 c0.4320000112056732,-9.53499984741211 8.196999549865723,-18.819000244140625 17.52400016784668,-20.951000213623047 c11.050000190734863,-2.5269999504089355 22.049999237060547,1.8919999599456787 26.75,11.732999801635742 c2.4660000801086426,5.164000034332275 3.819999933242798,11.013999938964844 4.785999774932861,16.704999923706055 c1.7289999723434448,10.204000473022461 5.7829999923706055,14.163000106811523 15.960000038146973,15.269000053405762 c6.583000183105469,0.7160000205039978 13.289999961853027,1.531999945640564 19.566999435424805,3.496000051498413 c9.531999588012695,2.9830000400543213 15.258000373840332,11.866000175476074 15.255999565124512,21.738000869750977 c-0.0010000000474974513,9.656999588012695 -5.910999774932861,18.594999313354492 -15.041000366210938,21.573999404907227 z" fill="#62DAFB" id="svg_1" class=""/><path d="M78.0719985961914,142.78184789419174 c-12.777999877929688,0.0020000000949949026 -23.209999084472656,-10.427000045776367 -23.211999893188477,-23.202999114990234 c-0.0020000000949949026,-12.777000427246094 10.427000045776367,-23.209999084472656 23.202999114990234,-23.211999893188477 c12.777000427246094,-0.0020000000949949026 23.208999633789062,10.427000045776367 23.211000442504883,23.202999114990234 c0.0020000000949949026,12.777000427246094 -10.427000045776367,23.209999084472656 -23.20199966430664,23.211999893188477 zM23.1299991607666,189.19984716176987 C10.36299991607666,189.1678494811058 -0.03200000151991844,178.70285314321518 0,165.91485875844955 c0.03200000151991844,-12.767000198364258 10.496000289916992,-23.16200065612793 23.284000396728516,-23.128999710083008 c12.767000198364258,0.03099999949336052 23.16200065612793,10.496000289916992 23.1299991607666,23.284000396728516 c-0.03200000151991844,12.767000198364258 -10.496000289916992,23.16200065612793 -23.284000396728516,23.1299991607666 zM232.96200561523438,189.19984716176987 c-12.800000190734863,0.0729999989271164 -23.30900001525879,-10.279999732971191 -23.381999969482422,-23.033000946044922 c-0.0729999989271164,-12.798999786376953 10.279999732971191,-23.30900001525879 23.033000946044922,-23.381000518798828 c12.800000190734863,-0.07400000095367432 23.308000564575195,10.277999877929688 23.381999969482422,23.031999588012695 c0.0729999989271164,12.798999786376953 -10.279999732971191,23.30900001525879 -23.033000946044922,23.381999969482422 z" fill="#424242" id="svg_2" class=""/></g></svg>