<svg height="491" width="491" xmlns="http://www.w3.org/2000/svg" style=""><rect id="backgroundrect" width="100%" height="100%" x="0" y="0" fill="none" stroke="none" style="" class=""/><g class="currentLayer" style=""><title>Layer 1</title><g fill="#61dafb" id="svg_1" class=""><path d="m490.5994595885277,247.59024047851562 c0,-32.5 -40.70000076293945,-63.29999923706055 -103.0999984741211,-82.4000015258789 c14.399999618530273,-63.599998474121094 8,-114.19999694824219 -20.200000762939453,-130.39999389648438 c-6.5,-3.799999952316284 -14.100000381469727,-5.599999904632568 -22.399999618530273,-5.599999904632568 v22.299999237060547 c4.599999904632568,0 8.300000190734863,0.8999999761581421 11.399999618530273,2.5999999046325684 c13.600000381469727,7.800000190734863 19.5,37.5 14.899999618530273,75.69999694824219 c-1.100000023841858,9.399999618530273 -2.9000000953674316,19.299999237060547 -5.099999904632568,29.399999618530273 c-19.600000381469727,-4.800000190734863 -41,-8.5 -63.5,-10.899999618530273 c-13.5,-18.5 -27.5,-35.29999923706055 -41.599998474121094,-50 c32.599998474121094,-30.299999237060547 63.20000076293945,-46.900001525878906 84,-46.900001525878906 v-22.299999237060547 c-27.5,0 -63.5,19.600000381469727 -99.9000015258789,53.599998474121094 c-36.400001525878906,-33.79999923706055 -72.4000015258789,-53.20000076293945 -99.9000015258789,-53.20000076293945 v22.299999237060547 c20.700000762939453,0 51.400001525878906,16.5 84,46.599998474121094 c-14,14.699999809265137 -28,31.399999618530273 -41.29999923706055,49.900001525878906 c-22.600000381469727,2.4000000953674316 -44,6.099999904632568 -63.599998474121094,11 c-2.299999952316284,-10 -4,-19.700000762939453 -5.199999809265137,-29 c-4.699999809265137,-38.20000076293945 1.100000023841858,-67.9000015258789 14.600000381469727,-75.80000305175781 c3,-1.7999999523162842 6.900000095367432,-2.5999999046325684 11.5,-2.5999999046325684 v-22.299999237060547 c-8.399999618530273,0 -16,1.7999999523162842 -22.600000381469727,5.599999904632568 c-28.100000381469727,16.200000762939453 -34.400001525878906,66.69999694824219 -19.899999618530273,130.10000610351562 c-62.20000076293945,19.200000762939453 -102.69999694824219,49.900001525878906 -102.69999694824219,82.30000305175781 c0,32.5 40.70000076293945,63.29999923706055 103.0999984741211,82.4000015258789 c-14.399999618530273,63.599998474121094 -8,114.19999694824219 20.200000762939453,130.39999389648438 c6.5,3.799999952316284 14.100000381469727,5.599999904632568 22.5,5.599999904632568 c27.5,0 63.5,-19.600000381469727 99.9000015258789,-53.599998474121094 c36.400001525878906,33.79999923706055 72.4000015258789,53.20000076293945 99.9000015258789,53.20000076293945 c8.399999618530273,0 16,-1.7999999523162842 22.600000381469727,-5.599999904632568 c28.100000381469727,-16.200000762939453 34.400001525878906,-66.69999694824219 19.899999618530273,-130.10000610351562 c62,-19.100000381469727 102.5,-49.900001525878906 102.5,-82.30000305175781 zm-130.1999969482422,-66.69999694824219 c-3.700000047683716,12.899999618530273 -8.300000190734863,26.200000762939453 -13.5,39.5 c-4.099999904632568,-8 -8.399999618530273,-16 -13.100000381469727,-24 c-4.599999904632568,-8 -9.5,-15.800000190734863 -14.399999618530273,-23.399999618530273 c14.199999809265137,2.0999999046325684 27.899999618530273,4.699999809265137 41,7.900000095367432 zm-45.79999923706055,106.5 c-7.800000190734863,13.5 -15.800000190734863,26.299999237060547 -24.100000381469727,38.20000076293945 c-14.899999618530273,1.2999999523162842 -30,2 -45.20000076293945,2 c-15.100000381469727,0 -30.200000762939453,-0.699999988079071 -45,-1.899999976158142 c-8.300000190734863,-11.899999618530273 -16.399999618530273,-24.600000381469727 -24.200000762939453,-38 c-7.599999904632568,-13.100000381469727 -14.5,-26.399999618530273 -20.799999237060547,-39.79999923706055 c6.199999809265137,-13.399999618530273 13.199999809265137,-26.799999237060547 20.700000762939453,-39.900001525878906 c7.800000190734863,-13.5 15.800000190734863,-26.299999237060547 24.100000381469727,-38.20000076293945 c14.899999618530273,-1.2999999523162842 30,-2 45.20000076293945,-2 c15.100000381469727,0 30.200000762939453,0.699999988079071 45,1.899999976158142 c8.300000190734863,11.899999618530273 16.399999618530273,24.600000381469727 24.200000762939453,38 c7.599999904632568,13.100000381469727 14.5,26.399999618530273 20.799999237060547,39.79999923706055 c-6.300000190734863,13.399999618530273 -13.199999809265137,26.799999237060547 -20.700000762939453,39.900001525878906 zm32.29999923706055,-13 c5.400000095367432,13.399999618530273 10,26.799999237060547 13.800000190734863,39.79999923706055 c-13.100000381469727,3.200000047683716 -26.899999618530273,5.900000095367432 -41.20000076293945,8 c4.900000095367432,-7.699999809265137 9.800000190734863,-15.600000381469727 14.399999618530273,-23.700000762939453 c4.599999904632568,-8 8.899999618530273,-16.100000381469727 13,-24.100000381469727 zm-101.4000015258789,106.69999694824219 c-9.300000190734863,-9.600000381469727 -18.600000381469727,-20.299999237060547 -27.799999237060547,-32 c9,0.4000000059604645 18.200000762939453,0.699999988079071 27.5,0.699999988079071 c9.399999618530273,0 18.700000762939453,-0.20000000298023224 27.799999237060547,-0.699999988079071 c-9,11.699999809265137 -18.299999237060547,22.399999618530273 -27.5,32 zm-74.4000015258789,-58.900001525878906 c-14.199999809265137,-2.0999999046325684 -27.899999618530273,-4.699999809265137 -41,-7.900000095367432 c3.700000047683716,-12.899999618530273 8.300000190734863,-26.200000762939453 13.5,-39.5 c4.099999904632568,8 8.399999618530273,16 13.100000381469727,24 s9.5,15.800000190734863 14.399999618530273,23.399999618530273 zm73.9000015258789,-208.10000610351562 c9.300000190734863,9.600000381469727 18.600000381469727,20.299999237060547 27.799999237060547,32 c-9,-0.4000000059604645 -18.200000762939453,-0.699999988079071 -27.5,-0.699999988079071 c-9.399999618530273,0 -18.700000762939453,0.20000000298023224 -27.799999237060547,0.699999988079071 c9,-11.699999809265137 18.299999237060547,-22.399999618530273 27.5,-32 zm-74,58.900001525878906 c-4.900000095367432,7.699999809265137 -9.800000190734863,15.600000381469727 -14.399999618530273,23.700000762939453 c-4.599999904632568,8 -8.899999618530273,16 -13,24 c-5.400000095367432,-13.399999618530273 -10,-26.799999237060547 -13.800000190734863,-39.79999923706055 c13.100000381469727,-3.0999999046325684 26.899999618530273,-5.800000190734863 41.20000076293945,-7.900000095367432 zm-90.5,125.19999694824219 c-35.400001525878906,-15.100000381469727 -58.29999923706055,-34.900001525878906 -58.29999923706055,-50.599998474121094 s22.899999618530273,-35.599998474121094 58.29999923706055,-50.599998474121094 c8.600000381469727,-3.700000047683716 18,-7 27.700000762939453,-10.100000381469727 c5.699999809265137,19.600000381469727 13.199999809265137,40 22.5,60.900001525878906 c-9.199999809265137,20.799999237060547 -16.600000381469727,41.099998474121094 -22.200000762939453,60.599998474121094 c-9.899999618530273,-3.0999999046325684 -19.299999237060547,-6.5 -28,-10.199999809265137 zm53.79999923706055,142.89999389648438 c-13.600000381469727,-7.800000190734863 -19.5,-37.5 -14.899999618530273,-75.69999694824219 c1.100000023841858,-9.399999618530273 2.9000000953674316,-19.299999237060547 5.099999904632568,-29.399999618530273 c19.600000381469727,4.800000190734863 41,8.5 63.5,10.899999618530273 c13.5,18.5 27.5,35.29999923706055 41.599998474121094,50 c-32.599998474121094,30.299999237060547 -63.20000076293945,46.900001525878906 -84,46.900001525878906 c-4.5,-0.10000000149011612 -8.300000190734863,-1 -11.300000190734863,-2.700000047683716 zm237.1999969482422,-76.19999694824219 c4.699999809265137,38.20000076293945 -1.100000023841858,67.9000015258789 -14.600000381469727,75.80000305175781 c-3,1.7999999523162842 -6.900000095367432,2.5999999046325684 -11.5,2.5999999046325684 c-20.700000762939453,0 -51.400001525878906,-16.5 -84,-46.599998474121094 c14,-14.699999809265137 28,-31.399999618530273 41.29999923706055,-49.900001525878906 c22.600000381469727,-2.4000000953674316 44,-6.099999904632568 63.599998474121094,-11 c2.299999952316284,10.100000381469727 4.099999904632568,19.799999237060547 5.199999809265137,29.100000381469727 zm38.5,-66.69999694824219 c-8.600000381469727,3.700000047683716 -18,7 -27.700000762939453,10.100000381469727 c-5.699999809265137,-19.600000381469727 -13.199999809265137,-40 -22.5,-60.900001525878906 c9.199999809265137,-20.799999237060547 16.600000381469727,-41.099998474121094 22.200000762939453,-60.599998474121094 c9.899999618530273,3.0999999046325684 19.299999237060547,6.5 28.100000381469727,10.199999809265137 c35.400001525878906,15.100000381469727 58.29999923706055,34.900001525878906 58.29999923706055,50.599998474121094 c-0.10000000149011612,15.699999809265137 -23,35.599998474121094 -58.400001525878906,50.599998474121094 z" id="svg_2"/><circle cx="245.19944763183594" cy="247.5902557373047" r="45.69996643066406" id="svg_3"/></g></g></svg>