<svg xmlns="http://www.w3.org/2000/svg" width="512" height="512" style=""><rect id="backgroundrect" width="100%" height="100%" x="0" y="0" fill="none" stroke="none" style="" class=""/><g class="currentLayer" style=""><title>Layer 1</title><path fill="#CF649A" d="M440.6000061035156,280.6000933647156 c-17.899999618530273,0.10100000351667404 -33.400001525878906,4.400000095367432 -46.400001525878906,10.800999641418457 c-4.800000190734863,-9.5 -9.600000381469727,-17.801000595092773 -10.39900016784668,-24 c-0.8999999761581421,-7.199999809265137 -2,-11.60099983215332 -0.8999999761581421,-20.200000762939453 C384,238.60009336471558 389,226.40008115768433 389,225.40008115768433 c-0.10100000351667404,-0.8999999761581421 -1.1009999513626099,-5.300000190734863 -11.399999618530273,-5.400000095367432 s-19.200000762939453,2 -20.200000762939453,4.699999809265137 s-3,8.899999618530273 -4.300000190734863,15.300000190734863 c-1.7999999523162842,9.399999618530273 -20.600000381469727,42.70000076293945 -31.299999237060547,60.20000076293945 c-3.5,-6.800000190734863 -6.5,-12.800000190734863 -7.10099983215332,-17.60099983215332 c-0.8989999890327454,-7.198999881744385 -2,-11.600000381469727 -0.8989999890327454,-20.198999404907227 c1.100000023841858,-8.60099983215332 6.099999904632568,-20.799999237060547 6.099999904632568,-21.799999237060547 c-0.10000000149011612,-0.8999999761581421 -1.100000023841858,-5.300000190734863 -11.39900016784668,-5.400000095367432 c-10.300999641418457,-0.10000000149011612 -19.200000762939453,2 -20.200000762939453,4.699999809265137 s-2.0999999046325684,9.100000381469727 -4.300000190734863,15.300000190734863 C281.8999938964844,261.4000811576843 256.8999938964844,317.00008726119995 250.39999389648438,331.50008726119995 c-3.299999952316284,7.400000095367432 -6.198999881744385,13.300000190734863 -8.300000190734863,17.299999237060547 c-2.0999999046325684,4 -0.10000000149011612,0.30000001192092896 -0.30000001192092896,0.699999988079071 c-1.7999999523162842,3.4000000953674316 -2.799999952316284,5.300000190734863 -2.799999952316284,5.300000190734863 v0.10100000351667404 c-1.399999976158142,2.5 -2.9000000953674316,4.89900016784668 -3.6010000705718994,4.89900016784668 c-0.5,0 -1.5,-6.699999809265137 0.20000000298023224,-15.89900016784668 c3.700000047683716,-19.301000595092773 12.699999809265137,-49.400001525878906 12.60099983215332,-50.5 c0,-0.5 1.6990000009536743,-5.801000118255615 -5.801000118255615,-8.5 c-7.300000190734863,-2.700000047683716 -9.89900016784668,1.7999999523162842 -10.5,1.7999999523162842 c-0.6000000238418579,0 -1.100000023841858,1.600000023841858 -1.100000023841858,1.600000023841858 s8.100000381469727,-33.89899826049805 -15.5,-33.89899826049805 c-14.800000190734863,0 -35.20000076293945,16.100000381469727 -45.29999923706055,30.799999237060547 c-6.400000095367432,3.5 -20,10.89900016784668 -34.400001525878906,18.799999237060547 c-5.5,3 -11.199999809265137,6.199999809265137 -16.600000381469727,9.100000381469727 L117.9000015258789,311.9000811576843 c-28.600000381469727,-30.5 -81.5,-52.099998474121094 -79.30000305175781,-93.0999984741211 c0.800000011920929,-14.899999618530273 6,-54.20000076293945 101.60099792480469,-101.80000305175781 c78.30000305175781,-39 141,-28.299999237060547 151.8990020751953,-4.5 c15.5,34 -33.5,97.19999694824219 -114.89900207519531,106.30000305175781 c-31,3.5 -47.30099868774414,-8.5 -51.400001525878906,-13 c-4.300000190734863,-4.699999809265137 -4.900000095367432,-4.900000095367432 -6.5,-4 c-2.5999999046325684,1.399999976158142 -1,5.599999904632568 0,8.100000381469727 c2.4000000953674316,6.300000190734863 12.399999618530273,17.5 29.399999618530273,23.100000381469727 c14.89900016784668,4.900000095367432 51.29999923706055,7.599999904632568 95.30000305175781,-9.399999618530273 c49.29999923706055,-19.100000381469727 87.80000305175781,-72.0999984741211 76.5,-116.4000015258789 c-11.5,-45.099998474121094 -86.30000305175781,-59.900001525878906 -157,-34.79999923706055 C121.4000015258789,87.39998197555542 75.80000305175781,110.7999529838562 43,141.49996519088745 C4,177.90006589889526 -2.200000047683716,209.70008420944214 0.4000000059604645,222.90008115768433 c9.10099983215332,47.099998474121094 74,77.80000305175781 100,100.5 c-1.2999999523162842,0.6990000009536743 -2.5,1.3990000486373901 -3.5999999046325684,2 c-13,6.39900016784668 -62.5,32.29999923706055 -74.9000015258789,59.69900131225586 c-14,31 2.200000047683716,53.30099868774414 13,56.30099868774414 c33.400001525878906,9.300000190734863 67.5999984741211,-7.400000095367432 86.0999984741211,-34.900001525878906 c18.39900016784668,-27.5 16.200000762939453,-63.20000076293945 7.699999809265137,-79.5 l-0.3009999990463257,-0.6000000238418579 l10.199999809265137,-6 c6.60099983215332,-3.9000000953674316 13.10099983215332,-7.5 18.799999237060547,-10.60099983215332 c-3.1989998817443848,8.699999809265137 -5.5,19 -6.698999881744385,34 c-1.399999976158142,17.60099983215332 5.800000190734863,40.400001525878906 15.300000190734863,49.400001525878906 c4.199999809265137,3.8989999294281006 9.199999809265137,4 12.300000190734863,4 c11,0 16,-9.10099983215332 21.5,-20 c6.800000190734863,-13.300000190734863 12.800000190734863,-28.700000762939453 12.800000190734863,-28.700000762939453 s-7.5,41.70000076293945 13,41.70000076293945 c7.5,0 15,-9.699999809265137 18.399999618530273,-14.699999809265137 v0.10000000149011612 s0.20000000298023224,-0.30000001192092896 0.6000000238418579,-1 a36.130001068115234,36.130001068115234 0 0 0 1.2000000476837158,-1.8990000486373901 v-0.20000000298023224 c3,-5.199999809265137 9.699999809265137,-17.100000381469727 19.700000762939453,-36.79999923706055 c12.89900016784668,-25.399999618530273 25.299999237060547,-57.20000076293945 25.299999237060547,-57.20000076293945 s1.2000000476837158,7.800000190734863 4.900000095367432,20.600000381469727 c2.1989998817443848,7.60099983215332 6.999000072479248,15.899999618530273 10.699000358581543,24 c-3,4.199999809265137 -4.800000190734863,6.60099983215332 -4.800000190734863,6.60099983215332 l0.10000000149011612,0.10000000149011612 c-2.3989999294281006,3.200000047683716 -5.099999904632568,6.60099983215332 -7.89900016784668,10 c-10.199999809265137,12.199999809265137 -22.399999618530273,26.10099983215332 -24,30.10099983215332 c-1.899999976158142,4.698999881744385 -1.5,8.199000358581543 2.200000047683716,11 c2.700000047683716,2 7.5,2.3989999294281006 12.600000381469727,2 c9.199999809265137,-0.6010000109672546 15.600000381469727,-2.9000000953674316 18.799999237060547,-4.301000118255615 c5,-1.7999999523162842 10.699999809265137,-4.5 16.200000762939453,-8.5 c10,-7.39900016784668 16.100000381469727,-17.89900016784668 15.5,-31.89900016784668 c-0.30000001192092896,-7.699999809265137 -2.799999952316284,-15.300000190734863 -5.900000095367432,-22.5 c0.8999999761581421,-1.2999999523162842 1.8009999990463257,-2.6010000705718994 2.700000047683716,-4 c15.800000190734863,-23.10099983215332 28,-48.5 28,-48.5 s1.2000000476837158,7.800000190734863 4.900000095367432,20.600000381469727 c1.8990000486373901,6.5 5.699999809265137,13.60099983215332 9.100000381469727,20.60099983215332 c-14.800000190734863,12.100000381469727 -24.100000381469727,26.100000381469727 -27.299999237060547,35.29999923706055 c-5.900000095367432,17 -1.2999999523162842,24.700000762939453 7.400000095367432,26.5 c3.8989999294281006,0.800000011920929 9.5,-1 13.699000358581543,-2.799999952316284 c5.199999809265137,-1.7000000476837158 11.5,-4.60099983215332 17.301000595092773,-8.899999618530273 c10,-7.400000095367432 19.600000381469727,-17.700000762939453 19.100000381469727,-31.600000381469727 c-0.30000001192092896,-6.400000095367432 -2,-12.699999809265137 -4.300000190734863,-18.700000762939453 c12.600000381469727,-5.199999809265137 28.89900016784668,-8.199999809265137 49.599998474121094,-5.699999809265137 c44.5,5.199999809265137 53.29999923706055,33 51.60100173950195,44.599998474121094 c-1.7000000476837158,11.60099983215332 -11,18 -14.10099983215332,20 c-3.0999999046325684,1.899999976158142 -4.099999904632568,2.6010000705718994 -3.799999952316284,4 c0.4000000059604645,2.1010000705718994 1.7999999523162842,2 4.5,1.6009999513626099 c3.700000047683716,-0.6010000109672546 23.399999618530273,-9.5 24.200000762939453,-30.89900016784668 c1.2000000476837158,-27.503999710083008 -24.899999618530273,-57.50400161743164 -71.19999694824219,-57.20500183105469 zM97.4000015258789,396.3000750541687 c-14.699999809265137,16.100000381469727 -35.400001525878906,22.200000762939453 -44.20000076293945,17 c-9.5,-5.5 -5.801000118255615,-29.200000762939453 12.300000190734863,-46.29999923706055 c11,-10.399999618530273 25.299999237060547,-20 34.70000076293945,-25.899999618530273 c2.0999999046325684,-1.2999999523162842 5.300000190734863,-3.1989998817443848 9.100000381469727,-5.5 c0.6000000238418579,-0.39899998903274536 1,-0.6000000238418579 1,-0.6000000238418579 c0.699999988079071,-0.4000000059604645 1.5,-0.8999999761581421 2.299999952316284,-1.399999976158142 c6.699999809265137,24.399999618530273 0.30000001192092896,45.79999923706055 -15.199999809265137,62.70000076293945 zm107.5,-73.0999984741211 c-5.099999904632568,12.5 -15.899999618530273,44.599998474121094 -22.399999618530273,42.79999923706055 c-5.60099983215332,-1.5 -9,-25.799999237060547 -1.1009999513626099,-49.79999923706055 c4,-12.10099983215332 12.5,-26.5 17.5,-32.10100173950195 c8.10099983215332,-9 16.899999618530273,-12 19.10099983215332,-8.300000190734863 c2.5999999046325684,4.801000118255615 -9.899999618530273,39.60100173950195 -13.100000381469727,47.4010009765625 zm88.69999694824219,42.400001525878906 c-2.200000047683716,1.1009999513626099 -4.199999809265137,1.899999976158142 -5.099999904632568,1.3009999990463257 c-0.699999988079071,-0.4000000059604645 0.8989999890327454,-1.899999976158142 0.8989999890327454,-1.899999976158142 s11.100000381469727,-11.899999618530273 15.5,-17.399999618530273 c2.5,-3.1989998817443848 5.5,-6.89900016784668 8.699999809265137,-11.100000381469727 v1.2000000476837158 C313.6000061035156,352.1000933647156 299.79998779296875,361.7000994682312 293.6000061035156,365.6000933647156 zm68.39900207519531,-15.600000381469727 c-1.600000023841858,-1.2000000476837158 -1.3990000486373901,-4.900000095367432 4,-16.5 c2.1010000705718994,-4.599999904632568 6.900000095367432,-12.300000190734863 15.199999809265137,-19.600000381469727 c1,3 1.6009999513626099,5.89900016784668 1.5,8.600000381469727 c-0.0989999994635582,18 -12.89900016784668,24.700000762939453 -20.700000762939453,27.5 z" id="svg_1" class=""/></g></svg>